<?xml version="1.0" encoding="UTF-8" standalone="no"?>
<!-- Created with Inkscape (http://www.inkscape.org/) -->

<svg
   version="1.1"
   id="svg9"
   width="541.26904"
   height="438.41757"
   viewBox="0 0 541.26904 438.41757"
   sodipodi:docname="Whazaa3.svg"
   inkscape:version="1.2 (dc2aedaf03, 2022-05-15)"
   xmlns:inkscape="http://www.inkscape.org/namespaces/inkscape"
   xmlns:sodipodi="http://sodipodi.sourceforge.net/DTD/sodipodi-0.dtd"
   xmlns="http://www.w3.org/2000/svg"
   xmlns:svg="http://www.w3.org/2000/svg">
  <defs
     id="defs13" />
  <sodipodi:namedview
     id="namedview11"
     pagecolor="#ffffff"
     bordercolor="#f9f5ff"
     borderopacity="0.25"
     inkscape:showpageshadow="2"
     inkscape:pageopacity="0.0"
     inkscape:pagecheckerboard="0"
     inkscape:deskcolor="#d1d1d1"
     showgrid="false"
     inkscape:zoom="1.3057734"
     inkscape:cx="266.89163"
     inkscape:cy="219.02727"
     inkscape:window-width="2000"
     inkscape:window-height="1046"
     inkscape:window-x="2391"
     inkscape:window-y="-9"
     inkscape:window-maximized="1"
     inkscape:current-layer="g15" />
  <g
     inkscape:groupmode="layer"
     inkscape:label="Image"
     id="g15"
     transform="translate(-2.3705492,-0.82853131)">
    <path
       style="fill:#d81159;stroke-width:0.8"
       d="m 25.965831,438.12525 c -9.40997,-2.45515 -16.4711283,-8.32154 -20.6604849,-17.1647 -2.433979,-5.13779 -2.539087,-5.77615 -2.52918,-15.36057 0.0085,-8.23908 0.310753,-10.79845 1.716354,-14.53428 5.9977179,-15.94085 21.3524309,-25.8759 37.6830709,-24.38229 6.90574,0.6316 11.12578,2.0276 13.86525,4.58664 2.26979,2.12031 2.32499,2.36366 2.32499,10.2509 0,9.07399 -0.20415,9.31877 -5.03464,6.03637 -6.5375,-4.44235 -13.643,-5.48634 -19.36536,-2.84531 -6.9963,3.229 -10.32588,9.80715 -10.37015,20.48797 -0.0361,8.71347 1.59256,13.60032 5.74897,17.2497 2.66593,2.34072 3.21561,2.49961 7.55998,2.18536 2.57676,-0.18638 4.99277,-0.67552 5.36892,-1.08697 0.37614,-0.41145 0.88815,-2.09809 1.13779,-3.74809 l 0.4539,-3 h -4.34971 c -3.72163,0 -4.3497,-0.21686 -4.3497,-1.50186 0,-3.09372 2.63457,-13.01842 3.7526,-14.13645 1.57495,-1.57496 28.09565,-1.7246 28.65641,-0.16169 0.19734,0.55 -0.47612,3.88 -1.49657,7.4 -1.67781,5.78749 -2.08831,6.4707 -4.28926,7.13881 -2.36256,0.71715 -2.46215,0.94561 -3.39818,7.79511 -1.09686,8.02641 -1.37928,8.36333 -10.64516,12.69936 -6.14406,2.87515 -15.37858,3.76214 -21.77984,2.09199 z m 60.10691,0.25026 c -10.65433,-3.19175 -17.25174,-16.50964 -14.99828,-30.27639 2.30643,-14.09039 10.97692,-23.47807 22.75143,-24.63333 3.50636,-0.34402 4.86724,-0.0354 8.892239,2.01709 4.98394,2.54141 6.0477,2.56991 6.0477,0.16207 0,-1.18403 0.87104,-1.55986 4.6,-1.98473 2.53,-0.28825 6.10063,-0.72621 7.93475,-0.97322 l 3.33474,-0.44911 -0.39192,3.08104 c -0.21555,1.69458 -1.37843,12.00313 -2.58418,22.9079 -1.96076,17.73322 -2.06973,20.07981 -1.032,22.2225 0.63815,1.31762 1.02039,2.52015 0.84944,2.67229 -1.09636,0.9757 -13.84183,5.96822 -14.3828,5.63387 -0.36633,-0.2264 -0.90007,-1.65901 -1.18608,-3.18357 -0.286,-1.52457 -0.68106,-2.77194 -0.87789,-2.77194 -0.19683,0 -1.70881,1.08564 -3.35995,2.41254 -4.614239,3.70808 -10.078579,4.81622 -15.597199,3.16299 z m 15.184249,-13.50057 c 2.26773,-1.38282 2.57725,-2.08213 3.45106,-7.79701 0.52795,-3.45287 1.16699,-8.8628 1.42009,-12.02205 l 0.46018,-5.74412 -2.71125,-1.6529 c -8.277499,-5.04635 -14.547249,1.3234 -14.509689,14.74112 0.01,3.52 0.40415,7.37562 0.87623,8.56806 2.0918,5.2837 6.30467,6.77818 11.013379,3.9069 z m 28.89112,13.72504 c -0.34905,-0.67095 3.99504,-50.4658 4.52256,-51.84048 0.18463,-0.48113 2.98156,-1.34545 6.21542,-1.92071 3.23386,-0.57526 7.45574,-1.51794 9.38197,-2.09484 l 3.50222,-1.04891 -0.48692,3.55247 c -0.26781,1.95386 -0.16955,3.55247 0.21834,3.55247 0.38789,0 2.631,-0.89334 4.98469,-1.98521 9.90507,-4.59491 16.83614,-4.56895 21.22017,0.0795 l 2.6012,2.75808 4.62903,-2.33193 c 5.85932,-2.95169 12.92307,-4.43795 17.69284,-3.72267 6.65785,0.9984 11.33183,7.60304 11.32448,16.00225 -0.002,1.76 -0.51649,7.7 -1.14435,13.2 -0.62785,5.5 -1.38034,12.72022 -1.6722,16.04494 l -0.53065,6.04494 -8.36065,2.24828 c -4.59835,1.23655 -8.55246,2.05648 -8.78688,1.82205 -0.23443,-0.23443 0.36457,-7.70695 1.33109,-16.60562 1.79728,-16.54717 1.79661,-22.96012 -0.002,-25.12805 -2.2855,-2.75386 -10.23647,-0.26489 -12.08016,3.78157 -0.45403,0.99649 -1.61992,8.99104 -2.59088,17.76567 l -1.76537,15.95388 -7.90263,2.28636 c -4.63209,1.34013 -8.19803,1.99094 -8.61641,1.57256 -0.41839,-0.41839 -0.20427,-5.07394 0.51737,-11.24926 2.19321,-18.76801 2.44943,-26.95674 0.91666,-29.29605 -1.62195,-2.47541 -4.55007,-2.6717 -8.4727,-0.56797 -4.39177,2.35533 -5.32492,5.2903 -6.76381,21.27376 -0.71036,7.89089 -1.37539,14.41829 -1.47784,14.50533 -0.50854,0.43185 -16.48905,5.94757 -17.23202,5.94757 -0.47301,0 -1.00049,-0.27 -1.17217,-0.6 z m 111.26029,-0.51951 c -7.02709,-1.89175 -12.87406,-6.74004 -16.49847,-13.68049 -1.80961,-3.46525 -2.08533,-4.96255 -2.06242,-11.2 0.0467,-12.71835 5.41292,-21.68789 16.13247,-26.96511 4.66121,-2.29471 6.09631,-2.61428 11.74785,-2.61602 5.06729,-0.002 7.11932,0.36453 9.638,1.71947 6.58892,3.54454 10.8,9.89067 10.8,16.27569 0,9.37011 -10.6162,16.78597 -24.03,16.78597 -3.97529,0 -6.37,0.32052 -6.37,0.85259 0,3.43951 5.9966,7.11459 11.6,7.10919 2.71551,-0.002 9.87625,-2.06357 15,-4.31719 1.26437,-0.55612 1.4,-0.0282 1.4,5.44927 0,5.9555 -0.0442,6.08791 -2.44662,7.33025 -3.56014,1.84103 -14.08374,4.38456 -17.88134,4.3219 -1.79962,-0.0297 -4.96288,-0.50919 -7.02947,-1.06552 z m 7.81518,-32.38594 c 6.15413,-1.79932 8.77553,-3.86912 7.99898,-6.31581 -1.18311,-3.72765 -7.89101,-4.42462 -11.70413,-1.21609 -3.94975,3.32349 -6.42991,10.39989 -3.3526,9.56563 0.77,-0.20875 3.94599,-1.12393 7.05775,-2.03373 z m 58.17949,32.66587 c -6.32068,-1.24857 -6.33003,-1.26384 -6.9023,-11.26581 -0.28266,-4.94025 -0.3623,-9.13391 -0.17697,-9.31923 0.18532,-0.18533 1.5306,0.54186 2.98949,1.61597 4.09839,3.01743 7.46395,4.04955 11.83527,3.62953 4.72122,-0.45366 6.41728,-1.66123 6.41728,-4.56907 0,-1.76874 -1.46256,-3.32536 -8.20717,-8.73508 -4.51394,-3.62054 -8.99473,-7.73793 -9.95731,-9.14976 -1.92969,-2.83033 -3.38576,-8.21155 -3.41596,-12.62446 -0.0931,-13.59636 15.975,-23.83799 32.50575,-20.71886 8.06932,1.52257 8.86433,2.60609 9.52113,12.97635 0.60416,9.53924 0.0383,10.53475 -3.707,6.52215 -4.38659,-4.69964 -12.63126,-6.62959 -16.56144,-3.87679 -1.32284,0.92655 -1.778,2.04767 -1.778,4.37937 0,3.0645 0.16411,3.24323 7.4,8.05914 4.07,2.70883 8.60154,6.04811 10.0701,7.42063 5.13302,4.79736 7.14548,11.14636 5.68769,17.94382 -2.79121,13.01494 -18.94656,21.02561 -35.72056,17.7121 z m 53.38107,-0.89886 c -5.30303,-2.75621 -6.8183,-5.92564 -6.8183,-14.26156 0,-3.74 0.30883,-10.49 0.68629,-15 l 0.6863,-8.2 -3.8863,-0.0122 c -6.22517,-0.0196 -6.45248,-0.59234 -2.6451,-6.66473 2.55278,-4.07144 3.77323,-5.32302 5.1906,-5.32302 1.66444,0 1.90413,-0.46826 2.35459,-4.6 0.27583,-2.53 0.76423,-5.85571 1.08533,-7.39047 l 0.58381,-2.79047 7.97224,-1.76693 c 10.70066,-2.37164 10.26525,-2.42311 9.71161,1.14787 -0.25581,1.65 -0.71148,5.79 -1.01259,9.2 l -0.54747,6.2 h 6.91034 c 3.80069,0 6.91035,0.17622 6.91035,0.39158 0,0.21537 -0.93199,2.71965 -2.07109,5.56507 l -2.07109,5.17348 -5.318,0.23494 -5.318,0.23493 -0.55849,3.2 c -0.30716,1.76 -0.81074,6.82272 -1.11907,11.25049 -0.7335,10.53362 -0.0999,11.92532 5.13431,11.27711 2.04679,-0.25347 4.6338,-0.683 5.74892,-0.95451 1.93382,-0.47085 2.07488,-0.2642 3.05338,4.47324 0.56424,2.7318 0.73187,5.23174 0.37251,5.55543 -1.51159,1.36154 -11.43934,4.11033 -16.25338,4.50021 -4.39955,0.35632 -5.75135,0.13459 -8.7817,-1.44041 z m 47.43313,0.25266 c -8.74979,-3.02348 -14.05868,-8.43305 -16.56772,-16.88188 -3.80923,-12.82708 1.87955,-26.62624 13.5017,-32.75078 1.75199,-0.92325 4.36199,-1.89935 5.8,-2.16913 1.93578,-0.36315 2.61459,-0.91325 2.61459,-2.11885 0,-1.53363 0.33737,-1.59953 5.8,-1.13287 14.61877,1.24887 24.08449,7.5972 27.00553,18.11167 1.17049,4.21325 0.95781,13.58717 -0.41299,18.20318 -4.48705,15.1095 -22.44324,24.02485 -37.74111,18.73866 z m 16.30928,-12.70704 c 5.08241,-3.28986 7.49393,-18.11307 3.76573,-23.14733 -4.69687,-6.34229 -11.41932,-7.51671 -15.68717,-2.74058 -5.28702,5.91669 -5.46864,19.96799 -0.32062,24.80431 3.46051,3.25097 8.24017,3.67404 12.24206,1.0836 z m 29.05435,10.79282 c 0.0295,-6.6597 3.85947,-47.19357 4.51627,-47.79741 0.36777,-0.33812 4.08867,-1.3458 8.26867,-2.2393 4.18,-0.8935 8.25953,-1.88562 9.06563,-2.2047 1.33588,-0.52878 1.41674,-0.25412 0.91337,3.1026 l -0.55227,3.68276 5.9488,-3.07837 c 5.29843,-2.74182 12.16623,-4.79048 13.0607,-3.89601 0.18063,0.18062 -0.26686,3.4163 -0.99443,7.19038 l -1.32285,6.86196 -4.9826,0.0287 c -6.732,0.0389 -11.33343,2.57345 -12.6161,6.94935 -0.25794,0.88 -1.04332,7.7128 -1.7453,15.184 -0.70197,7.47121 -1.3435,13.63286 -1.42563,13.69256 -0.75056,0.54561 -16.24875,5.92344 -17.07055,5.92344 -0.73817,0 -1.07401,-1.07348 -1.06371,-3.4 z m 60.21377,2.29136 c -8.21205,-2.69305 -13.36949,-7.1357 -16.67581,-14.36469 -1.93468,-4.22999 -2.10687,-5.37262 -1.81505,-12.0448 0.2664,-6.091 0.72283,-8.1899 2.62758,-12.08309 8.90747,-18.2062 34.18767,-22.02323 43.18687,-6.52074 4.09976,7.06248 3.16805,13.96761 -2.56371,19.00015 -4.7606,4.17987 -9.28862,5.75934 -17.96593,6.2669 l -7.77723,0.45491 0.97723,1.92288 c 1.95845,3.85366 5.00355,5.27866 11.23876,5.25936 4.54257,-0.0141 6.71724,-0.47254 10.43513,-2.2 2.58318,-1.20023 4.92318,-2.18242 5.2,-2.18263 1.01773,-7.9e-4 0.26829,11.37858 -0.81856,12.42896 -3.66778,3.54469 -19.90622,6.07733 -26.04928,4.06279 z m 4.57117,-31.31862 c 9.07249,-1.77143 13.57077,-6.11828 9.63198,-9.30772 -4.97692,-4.03005 -12.88772,0.44864 -14.87856,8.42347 -0.49605,1.98709 -0.37256,2.23201 0.93764,1.85972 0.82992,-0.23582 2.76894,-0.67478 4.30894,-0.97547 z M 213.96583,357.67937 c -6.94299,-0.41402 -9.53658,-0.91299 -12.29053,-2.36452 -4.55033,-2.39835 -9.88923,-7.94524 -12.23809,-12.71485 l -1.87138,-3.80002 -0.21304,-69.53327 -0.21304,-69.53326 2.28868,-4.86674 c 2.76982,-5.88983 7.6389,-10.91375 13.22724,-13.64787 3.70309,-1.81175 5.49322,-2.08659 16.56677,-2.54352 l 12.41507,-0.51229 -1.54151,-4.48152 c -2.18029,-6.33861 -2.64852,-18.16541 -0.99733,-25.1909 4.70052,-19.99973 23.67498,-35.55541 43.68389,-35.813 12.74719,-0.1641 23.55345,4.33488 32.9647,13.72424 10.33798,10.31393 14.92757,22.15209 13.89996,35.85284 -0.27452,3.66009 -1.1885,8.69671 -2.03108,11.1925 -0.84258,2.4958 -1.44205,4.62772 -1.33216,4.7376 0.10988,0.10989 6.65326,0.41724 14.54082,0.68301 12.9592,0.43666 14.73876,0.67092 18.46876,2.43119 5.26241,2.48344 10.01073,7.09448 12.84488,12.47352 l 2.2274,4.22748 v 70.39999 70.4 l -2.12016,4.01584 c -2.62778,4.97735 -9.10569,11.13856 -14.10606,13.41644 -3.74687,1.70686 -4.2073,1.72001 -64.57378,1.84548 -33.44001,0.0695 -64.76001,-0.10977 -69.60001,-0.39837 z m 132.92262,-9.45617 c 4.31248,-2.30611 7.91395,-6.73423 9.00673,-11.07403 1.26766,-5.03432 1.20894,-132.69725 -0.0634,-137.75 -1.1131,-4.42051 -6.2247,-9.9682 -10.34196,-11.22426 -1.49821,-0.45707 -9.66079,-1.04463 -18.13907,-1.3057 l -15.41505,-0.47467 -6.22342,5.82008 c -3.42288,3.20104 -8.28611,6.89226 -10.80717,8.20272 -6.43659,3.34576 -6.00051,4.44783 3.75772,9.49673 11.70909,6.05828 18.8559,12.75674 25.29561,23.70874 13.12032,22.31373 8.96044,51.3848 -10.0133,69.97717 -23.20757,22.7411 -57.51497,22.59876 -80.44491,-0.33376 -18.10546,-18.10749 -22.52886,-43.41483 -11.54753,-66.06624 6.24393,-12.87946 16.59965,-23.06403 29.01309,-28.53358 4.777,-2.10481 5.8,-2.87996 5.8,-4.39473 0,-1.36022 -0.8854,-2.28769 -3.4,-3.56151 -4.07502,-2.06429 -12.14868,-8.39893 -15.19062,-11.91863 l -2.19062,-2.5347 -13.40938,0.51824 c -8.7697,0.33893 -14.58285,0.93907 -16.8009,1.73451 -4.02388,1.44304 -8.36434,6.18577 -9.68003,10.57716 -1.30744,4.36385 -1.32177,134.21479 -0.0153,138.57542 1.13339,3.78289 4.81739,8.34352 8.15886,10.10029 1.3904,0.73099 5.048,1.57685 8.128,1.87968 3.08,0.30284 33.86,0.50724 68.4,0.45424 l 62.8,-0.0964 3.32262,-1.77678 z m -37.94461,-7.86858 c -0.9779,-0.68495 -1.778,-1.87614 -1.778,-2.64709 0,-2.69161 1.94473,-4.03337 7.00141,-4.83059 14.40924,-2.27172 24.13047,-12.03517 25.76221,-25.8741 0.39011,-3.30857 1.03742,-5.17133 2.05579,-5.91598 5.50487,-4.02526 7.70034,2.77668 4.37317,13.5488 -3.97888,12.88211 -15.39538,23.277 -28.63196,26.06984 -5.57306,1.17588 -6.66515,1.13225 -8.78262,-0.35088 z m -96.20783,-6.08378 c -6.3017,-4.75492 -8.81903,-12.68119 -5.87885,-18.51059 3.04739,-6.04192 7.80384,-9.36027 13.41687,-9.36027 4.66444,0 7.47753,1.11088 10.76006,4.24907 3.73084,3.5668 4.93174,6.23149 4.93174,10.94308 0,8.61428 -5.74134,14.48632 -14.72308,15.05824 -4.59455,0.29256 -5.18392,0.12769 -8.50674,-2.37953 z m 13.26618,-7.4345 c 2.41629,-2.41628 2.67943,-7.37515 0.53208,-10.02701 -2.12844,-2.62852 -8.21205,-3.16573 -10.45459,-0.9232 -3.16354,3.16355 -3.20528,8.22242 -0.0935,11.3342 2.33815,2.33816 7.49143,2.1406 10.016,-0.38399 z m 60.68684,-16.41671 c 8.99822,-2.30136 15.17032,-5.86615 22.14941,-12.79273 9.81522,-9.74136 14.3801,-20.93077 14.37134,-35.22692 -0.006,-9.14752 -1.40932,-15.05341 -5.6256,-23.66872 -2.5136,-5.13617 -4.45026,-7.69058 -9.40122,-12.4 -5.77341,-5.49176 -11.55146,-9.34271 -16.07316,-10.71243 -1.70791,-0.51736 -1.8356,-0.35271 -1.6,2.06317 0.21855,2.24096 0.91076,3.00709 4.7272,5.23202 5.74219,3.3476 13.67392,11.83421 16.74328,17.91459 8.57048,16.97803 5.33669,36.39442 -8.33439,50.04144 -18.78358,18.75051 -47.78087,16.71696 -63.7405,-4.47007 -5.85488,-7.77258 -8.08011,-13.91858 -8.54651,-23.60507 -0.79813,-16.57603 6.07033,-30.12427 19.66759,-38.79493 5.05945,-3.22628 5.65037,-3.8699 5.69244,-6.19999 0.0258,-1.43 -0.17043,-2.6 -0.43609,-2.6 -0.26566,0 -3.04739,1.34754 -6.18164,2.99454 -7.0715,3.71597 -15.96585,12.41021 -19.46264,19.02479 -8.05547,15.23781 -8.45335,32.59578 -1.09775,47.89064 5.85449,12.17356 18.57179,22.43336 31.76768,25.62889 6.97752,1.68968 18.07137,1.55015 25.38056,-0.31922 z m -1.32211,-16.9565 c 19.85429,-6.32943 29.05453,-29.88783 19.29742,-49.41353 -2.43815,-4.87917 -12.15839,-14.87785 -13.59837,-13.9879 -0.38508,0.238 -0.70013,8.5258 -0.70013,18.41737 0,20.01703 -0.2676,21.25335 -5.7299,26.47185 -3.38696,3.23579 -6.10194,4.24906 -11.38503,4.24906 -5.00401,0 -10.07477,-2.94028 -13.28508,-7.70337 -1.9302,-2.86381 -2.02792,-3.64604 -2.8,-22.41303 l -0.8,-19.44566 -3.74769,2.98103 c -8.59491,6.83666 -12.56531,14.57896 -13.24364,25.82517 -0.89055,14.76444 5.92401,27.00258 18.45405,33.14124 9.23685,4.52529 17.47212,5.08682 27.53837,1.87777 z m -5.60233,-25.05829 c 1.78062,-2.0701 1.8013,-2.36607 1.80604,-25.84946 0.002,-13.06547 0.236,-26.72539 0.51857,-30.35539 l 0.51378,-6.6 h -8.51857 -8.51858 l 0.005,28.59999 c 0.002,17.31524 0.33245,29.78102 0.83572,31.59316 1.05181,3.78736 3.98035,5.56285 8.35857,5.06761 2.1614,-0.24449 3.78289,-1.04093 5,-2.45591 z m 8.23513,-73.86708 c 9.3613,-3.64925 19.1808,-14.28434 22.13194,-23.97018 1.96505,-6.44942 1.75486,-18.24584 -0.43416,-24.36658 -8.04913,-22.50617 -33.20242,-31.90484 -54.70861,-20.44216 -8.75151,4.66451 -16.26789,15.13159 -18.20649,25.3538 -2.67806,14.12138 1.56367,26.97983 11.9892,36.34431 4.86593,4.37069 7.32442,5.79572 13.59423,7.87976 6.17327,2.05193 19.37624,1.64043 25.63389,-0.79895 z m -42.08808,-34.90821 c -1.09461,-1.67058 -1.15363,-2.61128 -0.38789,-6.18184 1.19478,-5.57104 3.93252,-10.08168 8.74562,-14.40907 5.89015,-5.29575 15.1641,-7.85672 18.03932,-4.98151 2.92848,2.92848 0.81251,6.27722 -4.527,7.16446 -8.59759,1.42861 -13.2873,6.2526 -14.55944,14.97632 -0.79356,5.44187 -4.77034,7.3086 -7.31061,3.43164 z M 26.414011,101.25804 C 25.343981,99.968741 2.3779431,18.892199 2.3705801,16.378004 c -0.01297,-4.42787 4.054057,-6.33044 15.9952509,-7.4826439 7.6049,-0.733795 10.11109,-0.171949 11.1083,2.4902929 0.37378,0.997891 2.93719,10.634347 5.69645,21.414346 2.75927,10.78 5.27697,19.891979 5.59489,20.248843 0.31793,0.356864 2.1867,-2.080861 4.15283,-5.417166 l 3.57479,-6.066009 -2.30314,-10.062963 c -2.15017,-9.394637 -2.21803,-10.192842 -1.02179,-12.018542 0.70474,-1.075568 2.07252,-2.255952 3.03951,-2.623075 3.01215,-1.143585 16.31484,-2.695608 18.46947,-2.154831 2.37009,0.594853 3.11812,2.777574 6.47497,18.893743 1.1456,5.5 2.38927,10.72 2.76371,11.6 0.83654,1.966033 0.38972,3.118643 6.04739,-15.6 2.46029,-8.139999 4.94071,-15.27048 5.51203,-15.845512 1.55005,-1.560122 20.055269,-5.6617069 21.612429,-4.7902789 0.70299,0.393412 1.27816,1.6871669 1.27816,2.8750089 0,2.137363 -22.931369,73.557821 -25.605519,79.749198 -0.76293,1.76637 -2.06451,3.81658 -2.89242,4.55603 -1.9886,1.776126 -12.0261,6.255545 -14.01746,6.255545 -2.02135,0 -2.74073,-1.84455 -7.56612,-19.399992 -2.1467,-7.81 -4.15167,-14.2 -4.45548,-14.2 -0.30381,0 -3.03069,5.1311 -6.05973,11.402448 -5.04935,10.454219 -5.93545,11.775539 -10.65531,15.888919 -7.403,6.451755 -10.56548,7.738355 -12.69978,5.166675 z m 86.511819,0.18195 c -1.42436,-1.42436 -1.29337,-6.254565 0.83093,-30.639992 0.18638,-2.13949 -0.0514,-2.423811 -2.19093,-2.619364 -5.03015,-0.459767 -6,-0.939556 -6,-2.968235 0,-1.076414 2.30242,-5.479556 5.11648,-9.784759 l 5.11648,-7.827641 0.8391,-8.4 c 0.4615,-4.62 1.07583,-11.711452 1.36518,-15.758783 0.28935,-4.04733 0.93935,-7.87014 1.44443,-8.495134 1.00335,-1.241553 19.84536,-6.1460819 23.61174,-6.1460819 1.43122,0 2.5313,0.510481 2.84137,1.3185079 0.54839,1.429074 -0.72556,18.510042 -1.96015,26.281491 -0.4194,2.64 -0.76526,5.802179 -0.76859,7.027066 l -0.006,2.227064 8.6,-0.227064 8.6,-0.227066 0.59154,-5.2 c 0.32534,-2.86 0.91772,-9.46952 1.31639,-14.687821 0.46399,-6.073295 1.11483,-9.870819 1.80847,-10.552043 1.2058,-1.184237 20.36968,-5.9601349 23.91576,-5.9601349 1.47678,0 2.419,0.500888 2.71874,1.4452969 0.56726,1.78726 -0.7578,18.599395 -2.3136,29.354702 -0.63648,4.4 -2.09077,18.08 -3.23174,30.399999 -1.14099,12.32 -2.25722,23.010947 -2.48052,23.757667 -0.39644,1.32575 -3.81593,2.85384 -15.06516,6.732245 -6.20173,2.13818 -8.49198,2.35797 -9.89988,0.95008 -1.22681,-1.22682 -1.16016,-10.884135 0.15903,-23.039992 0.54912,-5.06 0.86074,-9.47 0.69248,-9.8 -0.16827,-0.33 -4.21879,-0.6 -9.00116,-0.6 H 140.881 l -0.46722,4.2 c -0.25698,2.31 -0.84315,8.16 -1.3026,13 -0.45945,4.839997 -1.13617,9.103067 -1.50383,9.473487 -1.0739,1.08194 -19.91188,7.726505 -21.90542,7.726505 -0.99886,0 -2.2481,-0.432 -2.7761,-0.96 z m 91.6193,-1.02695 c -3.92703,-1.631179 -13.38551,-6.631655 -13.37636,-7.071755 0.002,-0.0777 1.03525,-2.79063 2.29696,-6.028711 l 2.29402,-5.887424 -2.44892,-4.748373 c -1.66578,-3.229866 -2.46429,-5.952149 -2.49696,-8.512576 l -0.048,-3.764202 6.04613,-0.230882 6.04613,-0.230882 4.52706,-11.769118 c 2.48987,-6.473015 5.81311,-15.276303 7.38496,-19.562861 4.72344,-12.88111 7.35688,-18.530682 9.32667,-20.008647 4.03194,-3.0252489 17.04434,-5.6034239 19.71937,-3.9070439 1.57172,0.996703 8.24785,18.9305879 14.93129,40.1094339 3.26301,10.34 7.77876,24.019999 10.03499,30.399999 2.25624,6.38 4.16552,12.463287 4.24283,13.518417 0.13062,1.78246 -0.68152,2.19507 -11.45943,5.822096 -6.41796,2.159809 -12.36384,3.718419 -13.30985,3.488969 -1.33894,-0.32476 -2.29342,-2.108349 -4.4,-8.222095 l -2.69015,-7.807387 -11.26655,-0.221152 -11.26655,-0.221152 -2.58313,6.621151 c -2.95024,7.562156 -4.49918,10.235665 -5.90221,10.187325 -0.53985,-0.0186 -3.06088,-0.89751 -5.60226,-1.95313 z m 29.71371,-42.613041 c -0.84329,-3.85 -1.7447,-7.54 -2.00315,-8.2 -0.39233,-1.001906 -2.56647,4.389241 -5.50919,13.660919 -0.44474,1.401234 -0.0615,1.539081 4.27855,1.539081 h 4.76704 z m 123.707,42.341321 c -2.64,-1.178519 -6.65071,-3.168255 -8.91268,-4.421655 l -4.11267,-2.27889 2.44746,-6.009185 2.44745,-6.009184 -1.93478,-3.598188 c -1.94782,-3.62244 -3.52406,-4.937967 -4.56929,-3.813527 -0.31102,0.334595 -0.12617,0.765511 0.41079,0.957591 0.65009,0.232552 -0.76424,3.822634 -4.23312,10.745132 -4.54224,9.064521 -5.56044,10.542571 -7.95058,11.541241 -2.17765,0.909876 -7.81951,1.145336 -27.4429,1.145336 -22.91461,0 -24.79749,-0.10584 -26.02569,-1.462986 -0.7282,-0.80465 -1.32399,-2.2723 -1.32399,-3.26145 0,-0.98915 6.31419,-12.938349 14.03153,-26.553762 7.71735,-13.615417 14.23587,-25.287764 14.48559,-25.938549 0.39071,-1.018151 -1.61895,-1.183245 -14.40339,-1.183245 -19.042,0 -18.38345,0.767953 -12.08773,-14.095848 5.94037,-14.024896 5.18356,-13.584126 22.774,-13.263702 7.26,0.132246 20.04,0.492246 28.4,0.799999 l 15.2,0.559552 0.22473,2 c 0.15068,1.341008 -4.26105,10.435099 -13.38934,27.599999 -7.48775,14.08 -13.61887,26.080035 -13.62474,26.666745 -0.009,0.856918 2.58007,1.014278 13.16027,0.8 l 13.17092,-0.266746 -0.46688,-2.960674 c -0.53936,-3.420284 -0.0238,-3.680101 8.0039,-4.033405 l 4.67886,-0.20592 2.74968,-6.8 c 1.51233,-3.74 4.53529,-11.773959 6.7177,-17.853242 5.48473,-15.278178 9.52788,-24.707833 11.25573,-26.251184 1.79477,-1.603118 12.96128,-4.6955729 16.95521,-4.6955729 2.15622,0 3.23454,0.474033 4.09458,1.8 1.7836,2.7498479 7.8542,19.5566799 13.27273,36.7463389 5.31754,16.86933 13.47156,41.216947 14.3778,42.931636 0.36954,0.69921 1.2125,-0.505737 2.3991,-3.429313 l 1.82937,-4.507288 -2.49015,-4.970689 c -1.36958,-2.733878 -2.71993,-6.48299 -3.00077,-8.331361 -0.58916,-3.877616 -0.23917,-4.072546 7.96016,-4.433405 l 4.67887,-0.20592 2.74968,-6.8 c 1.51232,-3.74 4.53528,-11.773959 6.71769,-17.853242 5.48473,-15.278178 9.52788,-24.707833 11.25573,-26.251184 1.79477,-1.603118 12.96128,-4.6955729 16.95521,-4.6955729 2.15622,0 3.23454,0.474033 4.09458,1.8 1.7836,2.7498479 7.8542,19.5566799 13.27273,36.7463389 5.71139,18.118764 13.48101,41.208363 14.59115,43.361736 1.15773,2.24567 2.17824,0.14807 2.19325,-4.508077 0.008,-2.548904 0.47534,-4.260928 1.41882,-5.2 1.78535,-1.777019 23.88252,-6.430908 25.03979,-5.273636 0.96138,0.961379 -0.57426,20.181833 -1.72304,21.566023 -0.42918,0.51714 -2.1175,1.17767 -3.75182,1.467846 -1.63432,0.29019 -6.85336,1.44208 -11.59785,2.559769 -10.09697,2.3786 -11.0643,2.09092 -10.37017,-3.084145 0.3512,-2.61844 0.21044,-3.21687 -0.68033,-2.89227 -13.48323,4.913376 -24.28461,8.021125 -25.41674,7.312845 -0.71852,-0.44951 -2.46585,-4.201095 -3.88295,-8.336865 l -2.57653,-7.519567 h -11.28239 -11.28239 l -3.23118,7.774687 c -1.93704,4.660766 -3.78433,7.950235 -4.61224,8.213005 -1.53652,0.48768 -5.01904,-0.80797 -12.98072,-4.829365 l -5.34197,-2.69821 -12.1498,4.107946 c -9.11513,3.081899 -12.47656,3.903529 -13.45803,3.289509 -0.71952,-0.45014 -2.46765,-4.202235 -3.88475,-8.338005 l -2.57653,-7.519567 h -11.27444 -11.27444 l -3.16701,7.563907 c -3.02148,7.216295 -4.13919,8.868245 -5.93104,8.765885 -0.44,-0.0251 -2.96,-1.00995 -5.6,-2.18847 z m 31.60553,-35.941321 c 0.0203,-2.197828 -3.53972,-15.373518 -4.01235,-14.84986 -0.32259,0.357423 -1.6875,3.97986 -3.03313,8.04986 l -2.44661,7.4 h 4.74328 c 2.60881,0 4.74577,-0.27 4.74881,-0.6 z m 80.8,0 c 0.0203,-2.197828 -3.53972,-15.373518 -4.01235,-14.84986 -0.32259,0.357423 -1.6875,3.97986 -3.03313,8.04986 l -2.44661,7.4 h 4.74328 c 2.60881,0 4.74577,-0.27 4.74881,-0.6 z m 46.86733,6.889452 c -0.19008,-0.599199 -0.52256,-14.449025 -0.73887,-30.777391 -0.29007,-21.897402 -0.14559,-30.184732 0.55058,-31.5811049 0.78325,-1.571054 2.77899,-2.401838 11.72964,-4.882809 5.93218,-1.644303 11.42709,-3.002805 12.21089,-3.018894 2.11056,-0.04332 2.47897,1.859777 1.43305,7.402606 -0.51561,2.7324779 -2.88701,15.0481409 -5.26976,27.3681409 -2.38276,12.32 -4.79491,24.92 -5.36034,28 -0.98955,5.390283 -1.13442,5.634716 -3.86837,6.527035 -5.24233,1.711016 -10.30475,2.16692 -10.68682,0.962417 z"
       id="path181" />
  </g>
</svg>
