<svg width="197" height="159" viewBox="0 0 197 159" fill="none" xmlns="http://www.w3.org/2000/svg">
<path d="M8.58773 158.594C5.16288 157.703 2.5929 155.576 1.06815 152.368C0.182277 150.505 0.144022 150.274 0.147628 146.798C0.150722 143.81 0.26073 142.881 0.772312 141.527C2.95524 135.745 8.54373 132.142 14.4874 132.684C17.0008 132.913 18.5368 133.419 19.5338 134.347C20.3599 135.116 20.38 135.204 20.38 138.065C20.38 141.356 20.3057 141.445 18.5476 140.254C16.1682 138.643 13.5821 138.264 11.4994 139.222C8.95303 140.393 7.7412 142.779 7.72509 146.653C7.71195 149.813 8.30471 151.585 9.81748 152.908C10.7878 153.757 10.9878 153.815 12.569 153.701C13.5068 153.633 14.3862 153.456 14.5231 153.307C14.66 153.158 14.8463 152.546 14.9372 151.948L15.1024 150.86H13.5193C12.1647 150.86 11.9362 150.781 11.9362 150.315C11.9362 149.193 12.895 145.593 13.3019 145.188C13.8752 144.617 23.5276 144.563 23.7317 145.129C23.8035 145.329 23.5584 146.537 23.187 147.813C22.5764 149.912 22.427 150.16 21.6259 150.402C20.766 150.662 20.7298 150.745 20.3891 153.229C19.9899 156.14 19.8871 156.262 16.5147 157.835C14.2785 158.878 10.9175 159.199 8.58773 158.594V158.594ZM30.4642 158.684C26.5865 157.527 24.1853 152.697 25.0054 147.704C25.8449 142.594 29.0006 139.189 33.286 138.77C34.5622 138.646 35.0575 138.757 36.5225 139.502C38.3364 140.423 38.7236 140.434 38.7236 139.561C38.7236 139.131 39.0406 138.995 40.3978 138.841C41.3186 138.736 42.6182 138.577 43.2857 138.488L44.4994 138.325L44.3568 139.442C44.2783 140.057 43.8551 143.796 43.4162 147.75C42.7026 154.182 42.6629 155.033 43.0406 155.81C43.2729 156.288 43.412 156.724 43.3498 156.779C42.9508 157.133 38.3119 158.943 38.115 158.822C37.9817 158.74 37.7875 158.22 37.6834 157.667C37.5793 157.115 37.4355 156.662 37.3638 156.662C37.2922 156.662 36.7419 157.056 36.141 157.537C34.4616 158.882 32.4728 159.284 30.4642 158.684V158.684ZM35.9907 153.788C36.816 153.287 36.9287 153.033 37.2467 150.96C37.4389 149.708 37.6714 147.746 37.7636 146.6L37.931 144.517L36.9443 143.918C33.9316 142.088 31.6497 144.398 31.6633 149.264C31.667 150.54 31.8104 151.939 31.9822 152.371C32.7436 154.287 34.2769 154.829 35.9907 153.788V153.788ZM46.5059 158.766C46.3788 158.522 47.9599 140.463 48.1519 139.965C48.2191 139.79 49.2371 139.477 50.414 139.268C51.591 139.06 53.1276 138.718 53.8287 138.508L55.1034 138.128L54.9262 139.416C54.8287 140.125 54.8644 140.705 55.0056 140.705C55.1468 140.705 55.9632 140.381 56.8198 139.985C60.4249 138.318 62.9475 138.328 64.5431 140.014L65.4899 141.014L67.1746 140.168C69.3072 139.098 71.8781 138.559 73.6141 138.818C76.0373 139.18 77.7384 141.576 77.7358 144.622C77.735 145.26 77.5478 147.414 77.3193 149.409C77.0908 151.404 76.8169 154.022 76.7107 155.228L76.5175 157.42L73.4746 158.236C71.801 158.684 70.3618 158.981 70.2765 158.896C70.1912 158.811 70.4092 156.101 70.761 152.874C71.4151 146.873 71.4149 144.547 70.7602 143.761C69.9284 142.762 67.0346 143.665 66.3636 145.132C66.1983 145.494 65.774 148.393 65.4206 151.575L64.7781 157.361L61.9018 158.19C60.2159 158.677 58.9181 158.913 58.7658 158.761C58.6135 158.609 58.6915 156.921 58.9541 154.681C59.7523 147.875 59.8456 144.905 59.2877 144.056C58.6974 143.159 57.6317 143.087 56.204 143.85C54.6056 144.705 54.266 145.769 53.7423 151.566C53.4837 154.427 53.2417 156.795 53.2044 156.826C53.0193 156.983 47.203 158.983 46.9326 158.983C46.7605 158.983 46.5685 158.885 46.506 158.766L46.5059 158.766ZM87.0001 158.577C84.4425 157.891 82.3145 156.133 80.9953 153.616C80.3367 152.359 80.2363 151.816 80.2447 149.554C80.2617 144.941 82.2148 141.688 86.1162 139.775C87.8127 138.942 88.3351 138.826 90.392 138.826C92.2363 138.825 92.9831 138.958 93.8998 139.449C96.2979 140.735 97.8306 143.036 97.8306 145.352C97.8306 148.75 93.9667 151.44 89.0847 151.44C87.6378 151.44 86.7662 151.556 86.7662 151.749C86.7662 152.996 88.9487 154.329 90.9882 154.327C91.9765 154.327 94.5827 153.579 96.4476 152.762C96.9077 152.56 96.9571 152.751 96.9571 154.738C96.9571 156.898 96.941 156.946 96.0666 157.396C94.7709 158.064 90.9407 158.986 89.5585 158.964C88.9035 158.953 87.7523 158.779 87.0001 158.577V158.577ZM89.8445 146.832C92.0844 146.179 93.0384 145.429 92.7558 144.541C92.3252 143.189 89.8838 142.937 88.496 144.1C87.0584 145.306 86.1558 147.872 87.2758 147.569C87.556 147.494 88.712 147.162 89.8445 146.832ZM111.019 158.679C108.719 158.226 108.716 158.22 108.507 154.593C108.404 152.801 108.375 151.28 108.443 151.213C108.51 151.146 109 151.41 109.531 151.799C111.023 152.894 112.248 153.268 113.839 153.116C115.557 152.951 116.174 152.513 116.174 151.459C116.174 150.817 115.642 150.253 113.187 148.291C111.544 146.978 109.913 145.484 109.563 144.972C108.861 143.946 108.331 141.994 108.32 140.394C108.286 135.463 114.134 131.749 120.151 132.88C123.087 133.432 123.377 133.825 123.616 137.586C123.836 141.045 123.63 141.406 122.267 139.951C120.67 138.247 117.669 137.547 116.239 138.545C115.757 138.881 115.592 139.288 115.592 140.134C115.592 141.245 115.652 141.31 118.285 143.056C119.766 144.039 121.416 145.25 121.95 145.748C123.818 147.487 124.551 149.79 124.02 152.255C123.004 156.975 117.125 159.88 111.019 158.679V158.679ZM130.448 158.353C128.518 157.353 127.966 156.204 127.966 153.181C127.966 151.824 128.079 149.376 128.216 147.741L128.466 144.767L127.052 144.762C124.786 144.755 124.703 144.547 126.089 142.345C127.018 140.869 127.462 140.415 127.978 140.415C128.584 140.415 128.671 140.245 128.835 138.746C128.935 137.829 129.113 136.623 129.23 136.066L129.442 135.054L132.344 134.413C136.239 133.553 136.08 133.535 135.879 134.83C135.786 135.428 135.62 136.929 135.51 138.166L135.311 140.415H137.826C139.209 140.415 140.341 140.479 140.341 140.557C140.341 140.635 140.002 141.543 139.587 142.575L138.833 144.451L136.898 144.536L134.962 144.622L134.759 145.782C134.647 146.42 134.464 148.257 134.352 149.862C134.085 153.683 134.315 154.187 136.221 153.952C136.965 153.86 137.907 153.705 138.313 153.606C139.017 153.435 139.068 153.51 139.424 155.228C139.63 156.219 139.691 157.126 139.56 157.243C139.01 157.737 135.396 158.734 133.644 158.875C132.043 159.004 131.551 158.924 130.448 158.353V158.353ZM147.712 158.444C144.527 157.348 142.595 155.386 141.682 152.322C140.295 147.67 142.366 142.665 146.596 140.444C147.234 140.109 148.183 139.755 148.707 139.658C149.411 139.526 149.658 139.326 149.658 138.889C149.658 138.333 149.781 138.309 151.769 138.478C157.09 138.931 160.535 141.234 161.598 145.047C162.024 146.575 161.947 149.974 161.448 151.649C159.815 157.128 153.28 160.362 147.712 158.444V158.444ZM153.648 153.836C155.497 152.643 156.375 147.267 155.018 145.441C153.309 143.141 150.862 142.715 149.309 144.447C147.384 146.593 147.318 151.689 149.192 153.443C150.452 154.622 152.191 154.775 153.648 153.836V153.836ZM164.222 157.75C164.233 155.335 165.627 140.635 165.866 140.416C166 140.293 167.354 139.928 168.875 139.603C170.397 139.279 171.882 138.92 172.175 138.804C172.661 138.612 172.691 138.712 172.507 139.929L172.306 141.265L174.472 140.148C176.4 139.154 178.9 138.411 179.225 138.735C179.291 138.801 179.128 139.974 178.863 141.343L178.382 143.832L176.568 143.842C174.118 143.856 172.443 144.775 171.977 146.362C171.883 146.682 171.597 149.16 171.341 151.869C171.086 154.579 170.852 156.813 170.822 156.835C170.549 157.033 164.909 158.983 164.609 158.983C164.341 158.983 164.219 158.594 164.222 157.75V157.75ZM186.138 158.581C183.149 157.605 181.272 155.993 180.068 153.372C179.364 151.838 179.302 151.423 179.408 149.003C179.505 146.794 179.671 146.033 180.364 144.621C183.606 138.018 192.807 136.634 196.082 142.256C197.575 144.818 197.235 147.322 195.149 149.147C193.417 150.663 191.769 151.236 188.61 151.42L185.78 151.585L186.135 152.282C186.848 153.68 187.957 154.197 190.226 154.19C191.879 154.185 192.671 154.018 194.024 153.392C194.964 152.956 195.816 152.6 195.916 152.6C196.287 152.6 196.014 156.727 195.619 157.108C194.284 158.393 188.373 159.312 186.138 158.581V158.581ZM187.801 147.223C191.103 146.581 192.741 145.004 191.307 143.847C189.496 142.386 186.616 144.01 185.892 146.902C185.711 147.623 185.756 147.712 186.233 147.577C186.535 147.491 187.241 147.332 187.801 147.223ZM77.0121 129.418C74.4851 129.268 73.5412 129.087 72.5389 128.561C70.8827 127.691 68.9396 125.679 68.0847 123.95L67.4036 122.571L67.326 97.3539L67.2485 72.1364L68.0815 70.3714C69.0896 68.2354 70.8617 66.4134 72.8957 65.4218C74.2434 64.7647 74.895 64.665 78.9253 64.4993L83.4439 64.3135L82.8828 62.6882C82.0893 60.3894 81.9189 56.1002 82.5199 53.5523C84.2306 46.299 91.1366 40.6575 98.419 40.5641C103.058 40.5046 106.992 42.1362 110.417 45.5414C114.179 49.2819 115.85 53.5753 115.476 58.5441C115.376 59.8715 115.043 61.6981 114.737 62.6033C114.43 63.5084 114.212 64.2816 114.252 64.3214C114.292 64.3613 116.673 64.4727 119.544 64.5691C124.261 64.7275 124.908 64.8125 126.266 65.4509C128.181 66.3515 129.909 68.0238 130.941 69.9746L131.752 71.5078V97.0396V122.571L130.98 124.028C130.024 125.833 127.666 128.067 125.846 128.894C124.482 129.513 124.315 129.517 102.344 129.563C90.1729 129.588 78.7737 129.523 77.0121 129.418V129.418ZM125.391 125.989C126.96 125.153 128.271 123.547 128.669 121.973C129.13 120.147 129.109 73.8477 128.646 72.0152C128.24 70.412 126.38 68.4001 124.882 67.9445C124.336 67.7788 121.365 67.5657 118.28 67.471L112.669 67.2988L110.404 69.4096C109.158 70.5705 107.388 71.9092 106.471 72.3845C104.128 73.5979 104.287 73.9975 107.838 75.8286C112.1 78.0258 114.701 80.4551 117.045 84.427C121.82 92.5195 120.306 103.063 113.401 109.806C104.954 118.053 92.4674 118.001 84.1218 109.684C77.5322 103.117 75.9222 93.9393 79.919 85.7243C82.1915 81.0534 85.9606 77.3598 90.4786 75.3761C92.2172 74.6128 92.5896 74.3317 92.5896 73.7823C92.5896 73.289 92.2673 72.9526 91.3521 72.4907C89.869 71.742 86.9305 69.4446 85.8233 68.1682L85.026 67.2489L80.1456 67.4368C76.9537 67.5598 74.838 67.7774 74.0307 68.0659C72.5662 68.5892 70.9864 70.3093 70.5076 71.9019C70.0317 73.4845 70.0265 120.577 70.502 122.159C70.9145 123.531 72.2553 125.185 73.4715 125.822C73.9776 126.087 75.3088 126.394 76.4298 126.504C77.5508 126.613 88.7534 126.687 101.325 126.668L124.181 126.633L125.391 125.989L125.391 125.989ZM111.58 123.135C111.224 122.887 110.933 122.455 110.933 122.175C110.933 121.199 111.641 120.712 113.481 120.423C118.726 119.599 122.264 116.059 122.858 111.04C123 109.84 123.235 109.164 123.606 108.894C125.61 107.434 126.409 109.901 125.198 113.808C123.75 118.48 119.594 122.25 114.777 123.262C112.748 123.689 112.351 123.673 111.58 123.135ZM76.5645 120.929C74.2709 119.204 73.3547 116.33 74.4248 114.216C75.534 112.024 77.2651 110.821 79.308 110.821C81.0057 110.821 82.0296 111.224 83.2243 112.362C84.5821 113.656 85.0192 114.622 85.0192 116.331C85.0192 119.455 82.9296 121.584 79.6606 121.792C77.9884 121.898 77.7739 121.838 76.5645 120.929V120.929ZM81.3929 118.233C82.2723 117.356 82.3681 115.558 81.5865 114.596C80.8119 113.643 78.5977 113.448 77.7815 114.261C76.6301 115.409 76.6149 117.243 77.7474 118.372C78.5984 119.22 80.474 119.148 81.3929 118.233H81.3929ZM103.48 112.279C106.755 111.444 109.002 110.151 111.542 107.639C115.114 104.106 116.776 100.048 116.772 94.8636C116.77 91.5461 116.26 89.4042 114.725 86.2797C113.81 84.417 113.105 83.4906 111.303 81.7826C109.202 79.7909 107.099 78.3943 105.453 77.8976C104.832 77.7099 104.785 77.7696 104.871 78.6458C104.951 79.4585 105.202 79.7364 106.592 80.5433C108.681 81.7574 111.568 84.8352 112.685 87.0403C115.805 93.1977 114.628 100.239 109.652 105.189C102.816 111.989 92.2617 111.251 86.4531 103.568C84.3221 100.749 83.5122 98.5198 83.3425 95.0068C83.052 88.9952 85.5518 84.0817 90.5007 80.9371C92.3421 79.7671 92.5572 79.5336 92.5725 78.6886C92.5819 78.17 92.5105 77.7457 92.4138 77.7457C92.3171 77.7457 91.3047 78.2344 90.1639 78.8317C87.5902 80.1793 84.353 83.3325 83.0803 85.7314C80.1484 91.2576 80.0036 97.5528 82.6808 103.1C84.8116 107.515 89.4401 111.236 94.2429 112.395C96.7825 113.007 100.82 112.957 103.48 112.279V112.279ZM102.999 106.129C110.225 103.834 113.574 95.2898 110.023 88.2085C109.135 86.439 105.598 82.8128 105.073 83.1355C104.933 83.2218 104.819 86.2276 104.819 89.8149C104.819 97.0744 104.721 97.5228 102.733 99.4154C101.5 100.589 100.512 100.956 98.5895 100.956C96.7682 100.956 94.9227 99.8901 93.7542 98.1626C93.0517 97.124 93.0162 96.8403 92.7352 90.0341L92.444 82.9818L91.08 84.063C87.9518 86.5424 86.5067 89.3503 86.2598 93.4289C85.9357 98.7835 88.4159 103.222 92.9764 105.448C96.3382 107.089 99.3355 107.293 102.999 106.129V106.129ZM100.96 97.0414C101.608 96.2906 101.616 96.1832 101.618 87.6666C101.618 82.9281 101.703 77.9741 101.806 76.6577L101.993 74.264H98.8928H95.7924L95.7942 84.6363C95.795 90.916 95.9152 95.437 96.0984 96.0942C96.4812 97.4677 97.5471 98.1116 99.1406 97.932C99.9272 97.8434 100.517 97.5545 100.96 97.0414H100.96ZM103.957 70.2521C107.365 68.9287 110.938 65.0717 112.013 61.5589C112.728 59.2199 112.651 54.9417 111.855 52.7219C108.925 44.5597 99.7702 41.1511 91.9428 45.3082C88.7577 46.9999 86.022 50.796 85.3164 54.5032C84.3417 59.6246 85.8855 64.2879 89.68 67.6841C91.451 69.2693 92.3458 69.7861 94.6278 70.5419C96.8746 71.2861 101.68 71.1368 103.957 70.2521V70.2521ZM88.6391 57.592C88.2407 56.9862 88.2192 56.645 88.4979 55.3501C88.9328 53.3296 89.9292 51.6938 91.681 50.1244C93.8247 48.2038 97.2001 47.275 98.2465 48.3177C99.3124 49.3798 98.5423 50.5943 96.5989 50.9161C93.4697 51.4342 91.7629 53.1837 91.2999 56.3475C91.011 58.3211 89.5636 58.9981 88.6391 57.592V57.592ZM8.75085 36.4226C8.3614 35.955 0.00269108 6.55111 1.12492e-05 5.6393C-0.00470931 4.03345 1.47552 3.34345 5.82163 2.92558C8.58951 2.65946 9.50166 2.86322 9.86461 3.82873C10.0006 4.19063 10.9336 7.68547 11.9379 11.595C12.9421 15.5046 13.8585 18.8092 13.9742 18.9386C14.0899 19.0681 14.7701 18.184 15.4857 16.974L16.7867 14.7741L15.9485 11.1245C15.1659 7.71741 15.1412 7.42792 15.5766 6.7658C15.8331 6.37573 16.3309 5.94764 16.6829 5.81449C17.7792 5.39975 22.6208 4.83688 23.405 5.03301C24.2676 5.24874 24.5399 6.04034 25.7616 11.8852C26.1786 13.8798 26.6312 15.773 26.7675 16.0921C27.072 16.8051 26.9093 17.2231 28.9685 10.4345C29.8639 7.48237 30.7667 4.89638 30.9747 4.68783C31.5388 4.12202 38.274 2.63451 38.8407 2.95055C39.0966 3.09323 39.3059 3.56243 39.3059 3.99322C39.3059 4.76838 30.9598 30.6703 29.9865 32.9157C29.7089 33.5563 29.2351 34.2999 28.9338 34.568C28.21 35.2122 24.5568 36.8367 23.832 36.8367C23.0963 36.8367 22.8345 36.1678 21.0783 29.801C20.297 26.9685 19.5672 24.6511 19.4566 24.6511C19.3461 24.6511 18.3536 26.512 17.2512 28.7864C15.4134 32.5778 15.0909 33.057 13.3731 34.5488C10.6787 36.8886 9.52764 37.3552 8.75085 36.4226V36.4226ZM40.2376 36.4886C39.7192 35.972 39.7669 34.2202 40.5401 25.3764C40.6079 24.6005 40.5214 24.4974 39.7427 24.4264C37.9119 24.2597 37.5589 24.0857 37.5589 23.35C37.5589 22.9596 38.3969 21.3627 39.4211 19.8013L41.2833 16.9625L41.5887 13.9161C41.7567 12.2406 41.9802 9.66873 42.0856 8.2009C42.1909 6.73306 42.4274 5.34665 42.6113 5.11998C42.9764 4.66971 49.8342 2.891 51.205 2.891C51.7259 2.891 52.1263 3.07613 52.2391 3.36918C52.4387 3.88746 51.9751 10.0822 51.5257 12.9006C51.3731 13.8581 51.2472 15.0049 51.246 15.4491L51.2438 16.2568L54.3738 16.1745L57.5039 16.0921L57.7192 14.2062C57.8376 13.169 58.0532 10.7719 58.1983 8.87943C58.3672 6.67684 58.6041 5.2996 58.8565 5.05255C59.2954 4.62306 66.2703 2.891 67.5609 2.891C68.0984 2.891 68.4413 3.07265 68.5504 3.41516C68.7569 4.06334 68.2746 10.1606 67.7083 14.0612C67.4767 15.6569 66.9474 20.6182 66.5321 25.0863C66.1168 29.5543 65.7106 33.4316 65.6293 33.7024C65.485 34.1832 64.2405 34.7374 60.1462 36.144C57.889 36.9194 57.0555 36.9991 56.543 36.4886C56.0965 36.0436 56.1208 32.5412 56.6009 28.1327C56.8008 26.2976 56.9142 24.6982 56.853 24.5785C56.7917 24.4589 55.3175 24.3609 53.5769 24.3609H50.4122L50.2421 25.8841C50.1486 26.7219 49.9353 28.8435 49.7681 30.5988C49.6008 32.3541 49.3545 33.9002 49.2207 34.0346C48.8299 34.4269 41.9736 36.8367 41.248 36.8367C40.8845 36.8367 40.4298 36.68 40.2376 36.4886V36.4886ZM73.5834 36.1161C72.1541 35.5245 68.7116 33.711 68.7149 33.5514C68.7156 33.5232 69.0917 32.5393 69.5509 31.365L70.3858 29.2298L69.4945 27.5077C68.8883 26.3364 68.5976 25.3491 68.5857 24.4205L68.5683 23.0553L70.7688 22.9716L72.9694 22.8879L74.617 18.6196C75.5232 16.272 76.7328 13.0794 77.3049 11.5248C79.024 6.8532 79.9825 4.80428 80.6994 4.26827C82.1668 3.17111 86.9028 2.23609 87.8764 2.85131C88.4485 3.21278 90.8783 9.71682 93.3108 17.3977C94.4984 21.1477 96.142 26.109 96.9631 28.4228C97.7843 30.7366 98.4792 32.9429 98.5074 33.3255C98.5549 33.972 98.2593 34.1216 94.3366 35.437C92.0007 36.2203 89.8367 36.7856 89.4924 36.7023C89.005 36.5846 88.6576 35.9377 87.8909 33.7205L86.9118 30.889L82.8113 30.8088L78.7107 30.7286L77.7705 33.1298C76.6968 35.8724 76.133 36.842 75.6224 36.8244C75.4259 36.8177 74.5083 36.4989 73.5834 36.1161H73.5834ZM84.3979 20.6617C84.091 19.2655 83.7629 17.9272 83.6689 17.6878C83.5261 17.3245 82.7348 19.2797 81.6638 22.6422C81.5019 23.1504 81.6414 23.2004 83.221 23.2004H84.956L84.3979 20.6617ZM129.422 36.0176C128.461 35.5902 127.002 34.8685 126.178 34.414L124.682 33.5875L125.572 31.4082L126.463 29.2288L125.759 27.9239C125.05 26.6101 124.476 26.133 124.096 26.5408C123.983 26.6622 124.05 26.8185 124.245 26.8881C124.482 26.9725 123.967 28.2745 122.705 30.785C121.052 34.0724 120.681 34.6085 119.811 34.9707C119.018 35.3006 116.965 35.386 109.823 35.386C101.483 35.386 100.798 35.3477 100.351 34.8555C100.086 34.5636 99.8688 34.0314 99.8688 33.6726C99.8688 33.3139 102.167 28.9803 104.976 24.0424C107.784 19.1046 110.157 14.8714 110.248 14.6354C110.39 14.2661 109.659 14.2062 105.006 14.2062C98.0751 14.2062 98.3148 14.4847 100.606 9.09412C102.768 4.00774 102.493 4.1676 108.895 4.2838C111.537 4.33177 116.189 4.46233 119.231 4.57394L124.764 4.77687L124.845 5.50221C124.9 5.98855 123.295 9.28668 119.972 15.5118C117.247 20.6182 115.016 24.9702 115.013 25.183C115.01 25.4938 115.952 25.5509 119.803 25.4731L124.597 25.3764L124.427 24.3027C124.231 23.0622 124.418 22.968 127.34 22.8399L129.043 22.7652L130.044 20.2991C130.594 18.9427 131.694 16.029 132.489 13.8243C134.485 8.28335 135.956 4.86352 136.585 4.3038C137.239 3.7224 141.303 2.60086 142.756 2.60086C143.541 2.60086 143.934 2.77278 144.247 3.25366C144.896 4.25095 147.105 10.3462 149.077 16.5804C151.013 22.6983 153.98 31.5284 154.31 32.1503C154.445 32.4039 154.752 31.9669 155.183 30.9066L155.849 29.272L154.943 27.4693C154.444 26.4778 153.953 25.1181 153.851 24.4477C153.636 23.0414 153.764 22.9708 156.748 22.8399L158.451 22.7652L159.452 20.2991C160.002 18.9427 161.102 16.029 161.897 13.8243C163.893 8.28335 165.364 4.86352 165.993 4.3038C166.646 3.7224 170.711 2.60086 172.164 2.60086C172.949 2.60086 173.341 2.77278 173.655 3.25366C174.304 4.25095 176.513 10.3462 178.485 16.5804C180.564 23.1515 183.392 31.5253 183.796 32.3063C184.217 33.1207 184.589 32.36 184.594 30.6714C184.597 29.747 184.767 29.1261 185.11 28.7855C185.76 28.141 193.803 26.4532 194.224 26.8729C194.574 27.2216 194.015 34.1922 193.597 34.6942C193.441 34.8818 192.826 35.1213 192.231 35.2266C191.636 35.3318 189.737 35.7495 188.01 36.1549C184.335 37.0175 183.983 36.9132 184.236 35.0364C184.364 34.0868 184.312 33.8697 183.988 33.9874C179.081 35.7694 175.15 36.8965 174.738 36.6396C174.476 36.4766 173.84 35.116 173.324 33.6161L172.387 30.889H168.28H164.174L162.998 33.7086C162.293 35.3989 161.621 36.5919 161.319 36.6872C160.76 36.8641 159.492 36.3942 156.595 34.9357L154.651 33.9572L150.228 35.447C146.911 36.5647 145.688 36.8627 145.33 36.64C145.068 36.4767 144.432 35.116 143.916 33.6161L142.979 30.889H138.875H134.772L133.619 33.6321C132.519 36.2493 132.113 36.8484 131.46 36.8113C131.3 36.8022 130.383 36.445 129.422 36.0176ZM140.925 22.9828C140.933 22.1857 139.637 17.4073 139.465 17.5972C139.348 17.7269 138.851 19.0406 138.361 20.5167L137.471 23.2004H139.197C140.147 23.2004 140.924 23.1025 140.925 22.9828V22.9828ZM170.333 22.9828C170.341 22.1857 169.045 17.4073 168.873 17.5972C168.756 17.7269 168.259 19.0406 167.769 20.5167L166.879 23.2004H168.605C169.554 23.2004 170.332 23.1025 170.333 22.9828V22.9828ZM187.391 25.4814C187.322 25.2641 187.201 20.2412 187.122 14.3194C187.017 6.37792 187.069 3.37238 187.323 2.86596C187.608 2.29618 188.334 1.99489 191.592 1.09512C193.751 0.498782 195.751 0.00609637 196.036 0.000261407C196.804 -0.0154494 196.938 0.674743 196.558 2.68495C196.37 3.67593 195.507 8.14243 194.64 12.6105C193.772 17.0786 192.894 21.6482 192.689 22.7652C192.328 24.7201 192.276 24.8087 191.281 25.1323C189.373 25.7529 187.53 25.9182 187.391 25.4814V25.4814Z" fill="white"/>
</svg>
